<svg xmlns="http://www.w3.org/2000/svg" viewBox="0 0 64 64"><path d="M7.27 55.46c-.46 0-.89-.17-1.23-.49a1.92 1.92 0 0 1-.6-1.35l-.14-8.17a1.89 1.89 0 0 1 1.48-1.86c3.2-.75 5.45-2.18 6.68-4.23 1.31-2.19 1.09-4.53.94-5.41H3c-1.65 0-3-1.35-3-3V11.54c0-1.65 1.34-3 3-3h21c1.65 0 3 1.34 3 3v20.71c0 5.1-1.31 9.88-3.8 13.82-2.08 3.31-6.91 8.92-15.84 9.4-.03-.01-.06-.01-.09-.01zm-.85-1.86c0 .24.11.48.29.65.17.16.39.24.61.23 8.48-.45 13.07-5.79 15.06-8.94 2.39-3.78 3.65-8.38 3.65-13.29V11.54c0-1.11-.9-2.01-2.01-2.01H3c-1.11 0-2.01.9-2.01 2.01v19.42c0 1.11.9 2.01 2.01 2.01h11.8c.22 0 .42.15.48.36.04.14.89 3.41-.97 6.52-1.37 2.3-3.83 3.88-7.31 4.69-.43.1-.73.46-.72.88l.14 8.18zm37.85 1.86c-.46 0-.89-.17-1.24-.49a1.92 1.92 0 0 1-.6-1.35l-.14-8.17a1.89 1.89 0 0 1 1.48-1.86c3.2-.75 5.45-2.18 6.68-4.23 1.31-2.19 1.09-4.53.94-5.41H40c-1.65 0-3-1.35-3-3V11.54c0-1.65 1.34-3 3-3h21c1.65 0 3 1.34 3 3v20.71c0 5.1-1.31 9.88-3.8 13.82-2.08 3.31-6.91 8.92-15.84 9.4-.03-.01-.06-.01-.09-.01zM40 9.53c-1.11 0-2.01.9-2.01 2.01v19.42c0 1.11.9 2.01 2.01 2.01h11.8c.22 0 .42.15.47.36.04.14.89 3.41-.97 6.52-1.37 2.3-3.83 3.88-7.31 4.69-.43.1-.73.46-.72.88l.14 8.17c0 .24.11.48.29.65.17.16.39.24.61.23 8.48-.45 13.07-5.79 15.06-8.94 2.39-3.78 3.65-8.38 3.65-13.29v-20.7c0-1.11-.9-2.01-2.01-2.01H40z"/></svg>