<svg xmlns="http://www.w3.org/2000/svg" enable-background="new 0 0 64 64" viewBox="0 0 64 64"><path fill="#333" d="M63,22v-8h-4.643c-0.213-0.658-0.477-1.297-0.79-1.909l3.282-3.283L55.192,3.15l-3.283,3.282  C51.297,6.119,50.658,5.855,50,5.643V1h-8v4.643c-0.658,0.213-1.297,0.477-1.909,0.79L36.808,3.15L31.15,8.808l3.282,3.283  c-0.313,0.612-0.577,1.251-0.79,1.909H29v3.319c-4.705,0.978-8.76,4.203-10.723,8.681H14H7H6c-2.757,0-5,2.243-5,5s2.243,5,5,5h1h7  h3.576c0.883,3.195,2.773,5.998,5.424,7.99v2.06c-1.692,0.245-3,1.691-3,3.449c0,1.254,0.669,2.348,1.663,2.966  C21.25,53.041,21,53.74,21,54.5c0,1.254,0.669,2.348,1.663,2.966C22.25,58.041,22,58.74,22,59.5c0,1.93,1.57,3.5,3.5,3.5h13  c1.93,0,3.5-1.57,3.5-3.5c0-0.76-0.25-1.459-0.663-2.034C42.331,56.848,43,55.754,43,54.5c0-0.76-0.25-1.459-0.663-2.034  C43.331,51.848,44,50.754,44,49.5c0-1.758-1.308-3.204-3-3.449v-2.06c2.953-2.219,4.944-5.435,5.675-8.99H50v-4.643  c0.658-0.213,1.297-0.478,1.91-0.79l3.282,3.281l5.657-5.656l-3.282-3.283c0.313-0.612,0.577-1.251,0.79-1.909H63z M17.481,28H27v2  H14v-2H17.481z M6,34c-1.654,0-3-1.346-3-3s1.346-3,3-3h1v6H6z M9,34v-6h3v6H9z M14,34v-2h13v2h-9.899H14z M39.5,56h-1h-13h-1  c-0.827,0-1.5-0.673-1.5-1.5s0.673-1.5,1.5-1.5h15c0.827,0,1.5,0.673,1.5,1.5S40.327,56,39.5,56z M38.5,61h-13  c-0.827,0-1.5-0.673-1.5-1.5s0.673-1.5,1.5-1.5h13c0.827,0,1.5,0.673,1.5,1.5S39.327,61,38.5,61z M42,49.5  c0,0.827-0.673,1.5-1.5,1.5h-1h-15h-1c-0.827,0-1.5-0.673-1.5-1.5s0.673-1.5,1.5-1.5h17C41.327,48,42,48.673,42,49.5z M39.428,42.66  L39,42.959V46H25v-3.041l-0.428-0.299c-2.338-1.633-4.055-3.967-4.924-6.66H29V26h-8.518c1.749-3.344,4.893-5.76,8.518-6.635V22  h4.643c0.213,0.658,0.477,1.297,0.79,1.909l-3.282,3.283l5.657,5.656l3.282-3.281c0.613,0.313,1.252,0.577,1.91,0.79V35h2.641  C43.909,38.068,42.076,40.811,39.428,42.66z M40,18c0-3.309,2.691-6,6-6s6,2.691,6,6s-2.691,6-6,6c-0.487,0-0.97-0.059-1.439-0.174  c-1.143-1.75-2.638-3.245-4.387-4.387C40.059,18.97,40,18.487,40,18z M38.85,20.972c1.686,1.051,3.127,2.492,4.178,4.178  C44.27,27.142,45,29.485,45,32c0,0.336-0.035,0.667-0.061,1H44v-4.168l-0.75-0.194c-0.997-0.257-1.948-0.65-2.827-1.17l-0.668-0.394  l-2.947,2.946l-2.829-2.828l2.947-2.947l-0.394-0.668c-0.52-0.879-0.913-1.83-1.17-2.827L35.168,20H31v-0.958  C31.331,19.016,31.664,19,32,19C34.515,19,36.858,19.73,38.85,20.972z M58.021,27.192l-2.829,2.828l-2.947-2.946l-0.668,0.394  c-0.879,0.52-1.83,0.913-2.827,1.17L48,28.832V33h-1.059C46.964,32.667,47,32.336,47,32c0-2.142-0.459-4.176-1.271-6.02  C45.82,25.983,45.909,26,46,26c4.411,0,8-3.589,8-8s-3.589-8-8-8s-8,3.589-8,8c0,0.091,0.017,0.18,0.02,0.271  C36.176,17.459,34.142,17,32,17c-0.335,0-0.668,0.016-1,0.039V16h4.168l0.194-0.75c0.257-0.997,0.65-1.948,1.17-2.827l0.394-0.668  l-2.947-2.947l2.829-2.829l2.947,2.947l0.668-0.394c0.879-0.52,1.83-0.913,2.827-1.17L44,7.168V3h4v4.168l0.75,0.194  c0.997,0.257,1.948,0.65,2.827,1.17l0.668,0.394l2.947-2.947l2.829,2.829l-2.947,2.947l0.394,0.668  c0.52,0.879,0.913,1.83,1.17,2.827L56.832,16H61v4h-4.168l-0.194,0.75c-0.257,0.997-0.65,1.948-1.17,2.827l-0.394,0.668  L58.021,27.192z"/></svg>