<svg xmlns="http://www.w3.org/2000/svg" data-name="Layer 1" viewBox="0 0 512 512"><path d="m511.35 395.81-7.88-48.32c-.27-23.66-15.77-43.82-38-49.33L449.62 292a2.08 2.08 0 0 0-.32-.12l-21.23-8.17-1.32-.51a15.29 15.29 0 0 1-9.81-13.88v-.54l.07-.05a75.13 75.13 0 0 0 19.32-25.44c6.12-1.65 11.25-5.91 14.76-12.36a43.06 43.06 0 0 0 4.76-16.28 15.63 15.63 0 0 0-5.69-13c-1.77-41.8-31-75.15-66.66-75.15-16.31 0-31.5 7.14-43.26 19.08-10.61-43.71-44.49-75.76-84.54-75.76-39.37 0-73.73 31.73-84.61 75.93-11.7-12-26.94-19.25-43.58-19.25-33.17 0-61.65 29.54-66.24 68.72-.3 2.59-.5 5.21-.59 7.83-2.52 2.78-5.39 7-5 11.58.94 12.38 7.22 25.07 19.22 28.26a73.39 73.39 0 0 0 20.55 26.37l.14.11a14 14 0 0 1-9.72 13.12l-.32.11-21.15 6.91-.66.21-18.52 6.05C23.44 301.61 8.23 321.74 8 345L.09 395.87a7.49 7.49 0 0 0 7.41 8.65h82.24l-4.49 29a7.51 7.51 0 0 0 7.41 8.65h326.68a7.5 7.5 0 0 0 7.4-8.71L422 404.52h82a7.51 7.51 0 0 0 7.4-8.71Zm-91.12-88.28 7.25-7.93 6.53 2.51L406.53 333a65.94 65.94 0 0 0-8.74-11.67 47.94 47.94 0 0 0 22.44-13.8Zm-36 .61a32.22 32.22 0 0 1-4.72-.43 64.29 64.29 0 0 0-12.1-4.55 33.14 33.14 0 0 1-7.68-6.62l-4-4.72a29 29 0 0 0 9.58-14.15 47.15 47.15 0 0 0 18.52 4 48.06 48.06 0 0 0 19.36-4.17 30.19 30.19 0 0 0 10.3 15.28l-4.28 4.68a32.88 32.88 0 0 1-24.99 10.68Zm-.74-166.59c22.06 0 40.94 17.21 48.37 41.37-12.67-12.16-25.82-19.64-47.38-18.21-12.88-.8-24.34 5-30.83 10.73a31.9 31.9 0 0 0-3.54 3.66 21.09 21.09 0 0 0-6.5-8.53c-.06-1.71-.15-3.4-.27-5.09 9.66-14.65 24.19-23.93 40.14-23.93Zm-38.34 66.2c.57-1.05 1.08-2.1 1.55-3.14l6.12-2.67a12.33 12.33 0 0 0 7.36-10.73c.34-3.1 10.94-12.49 23.71-11.51a8.52 8.52 0 0 0 1.13 0c23.14-1.69 33.05 9.44 51 29.65l.45.5a7.58 7.58 0 0 0 3.33 2.75 3.84 3.84 0 0 1 1.05 1 28.47 28.47 0 0 1-3 10.14c-2.5 4.58-5.27 5.21-7.13 5.29a7.49 7.49 0 0 0-6.64 4.68 60.74 60.74 0 0 1-16.75 23.49c-.53.45-1.09.89-1.66 1.31a6.9 6.9 0 0 0-1.52 1.11 35.66 35.66 0 0 1-20.42 6.94c-6.52 0-13.42-2.35-20-6.81a5.93 5.93 0 0 0-.95-.65c-.72-.51-1.43-1-2.11-1.58a58.55 58.55 0 0 1-17.64-24.13 7.5 7.5 0 0 0-6.68-4.75c-3.71-.15-6-2.95-7.5-6.1 6.71-2.34 12.24-7.36 16.29-14.79ZM191.36 309.69l-3-3.59-3.18-3.87 13-4.26 1.36-.45 10.26 12a62.51 62.51 0 0 0 34.53 20.62 61.83 61.83 0 0 0 12 1.38h1.12A63.21 63.21 0 0 0 266 331a62.62 62.62 0 0 0 37.63-19.75l.65-.71c.3-.1.6-.18.9-.26l.43-.13 14.07-4.6 6.38-2.08 5.45-1.78-2.57 2.89-5.22 5.88-47.49 53.4-18.38 20.67-2.54 2.86-1.64-2-18.94-23ZM215 260.77a21.8 21.8 0 0 1-15.07 20.88l-.36.12-17.63 5.76-9.82-3.78-1.32-.51a15.29 15.29 0 0 1-9.8-13.88v-.53l.07-.06a75.24 75.24 0 0 0 19.31-25.44 22.77 22.77 0 0 0 12.08-8.33 95.33 95.33 0 0 0 21.27 24c.4.32.81.64 1.23 1Zm14.16 7.94a62.4 62.4 0 0 0 27 6.45 63.27 63.27 0 0 0 28.13-6.81 38.33 38.33 0 0 0 16.18 24.19l-4.61 5-3.22 3.53a46.54 46.54 0 0 1-5 4.73l-.72.58c-.77.61-1.56 1.19-2.36 1.73-.4.28-.8.55-1.21.81a44.89 44.89 0 0 1-5.38 3l-.93.43-.94.41c-.33.15-.67.29-1 .42a47.47 47.47 0 0 1-53.68-13.38l-7.42-8.55a36.6 36.6 0 0 0 15.12-22.54Zm97.35 18.84-13-5a23.44 23.44 0 0 1-15.06-21.29l-.06-2 1.1-.91a96.27 96.27 0 0 0 19.76-23 22.28 22.28 0 0 0 11.58 7.64 73.61 73.61 0 0 0 20.55 26.37l.15.12a14.05 14.05 0 0 1-9.72 13.11l-.32.11ZM183.25 162.61v-.3c5.3-44.17 36.37-77.44 72.39-77.44 34.07 0 62.76 28.89 70.76 67.82-19.12-20.1-37.22-33.15-69.42-31-16.75-1.12-31.66 6.41-40.09 13.89-6.35 5.63-10.08 12-10.55 18l-22.48 9.8-.78.34c.08-.33.12-.72.17-1.11ZM176.47 185c.18-.27.4-.55.63-.84.62-.74 1.34-1.54 2.07-2.25l10.6-4.63 23.16-10.1a14.09 14.09 0 0 0 8.4-12.25c0-1.21 1.27-4.26 5.55-8.06 5.94-5.27 17.23-11.09 29.55-10.12a8.51 8.51 0 0 0 1.13 0c30.19-2.21 44.24 10.75 65.79 34.76l5.72 6.42.77.86a7.5 7.5 0 0 0 3.61 2.93 11.06 11.06 0 0 1 1.61 1.33 3.49 3.49 0 0 1 1.24 2.52 41 41 0 0 1-1.48 7.85 36.23 36.23 0 0 1-2.88 7.16l-.17.3c-4.48 8-9.94 8.22-11.76 8.3a7.52 7.52 0 0 0-2.58.58 7.43 7.43 0 0 0-4.06 4.1q-.7 1.74-1.5 3.45a84.31 84.31 0 0 1-22 29.51c-.81.67-1.65 1.34-2.51 2a7.12 7.12 0 0 0-1.89 1.38c-9.25 6.53-19.39 10-29.38 10-9.42 0-19.34-3.37-28.75-9.77a7.55 7.55 0 0 0-1.27-.88h-.06c-1-.71-2-1.45-2.93-2.2a82 82 0 0 1-23.44-30.64c-.48-1.08-.93-2.17-1.36-3.26a7.43 7.43 0 0 0-4.82-4.43 7.1 7.1 0 0 0-1.85-.32c-6.51-.27-10.39-5-12.69-10.14a43 43 0 0 1-3.18-12.33 7.7 7.7 0 0 1 .73-1.23Zm-49-43.42c16.33 0 30.92 9.42 40.4 24.12-.18 2.19-.29 4.4-.35 6.6-.61.64-1.26 1.35-1.89 2.13-9.93-7-21.26-10.75-37.17-9.69-12.88-.8-24.34 5-30.82 10.73-4.65 4.12-7.54 8.81-8.28 13.39l-12.86 5.58c4.56-30.32 26.13-52.89 50.99-52.89Zm-40.39 91.86a7.5 7.5 0 0 0-6.68-4.75c-7.27-.3-9.26-10.8-9.71-14.14a15.64 15.64 0 0 1 1.63-1.92l24.5-10.69a12.33 12.33 0 0 0 7.36-10.73c.34-3.1 10.95-12.49 23.71-11.51a8.54 8.54 0 0 0 1.13 0c13.92-1 23 2.6 32 10.06 1.57 11.43 7.54 27.31 21.7 32.3-.26.59-.53 1.17-.84 1.73-2.5 4.58-5.26 5.21-7.13 5.29a7.5 7.5 0 0 0-6.64 4.68 60.74 60.74 0 0 1-16.75 23.49c-.53.44-1.07.87-1.63 1.29a7 7 0 0 0-1.56 1.14 35.59 35.59 0 0 1-20.41 6.93c-6.51 0-13.42-2.35-20-6.81a7.78 7.78 0 0 0-1-.7c-.7-.48-1.39-1-2.06-1.53a58.55 58.55 0 0 1-17.62-24.13Zm70.37 59.29-3.64 4-9.22 3A63.42 63.42 0 0 0 126 308a33 33 0 0 1-22.32-11.49l-4-4.72a28.9 28.9 0 0 0 9.58-14.15 47.11 47.11 0 0 0 18.52 4 48.06 48.06 0 0 0 19.36-4.17 30.23 30.23 0 0 0 10.31 15.26Zm-71.86 5.66 6.69 7.86a47.9 47.9 0 0 0 20 13.93 67.9 67.9 0 0 0-7.79 11.3L79 300.55Zm12.57 49.05A69.87 69.87 0 0 0 96 364.15l-3.93 25.37H62.84v-35.94a7.5 7.5 0 0 0-15 0v35.94H16.25l6.63-42.79a7.33 7.33 0 0 0 .09-1.15c0-16.75 10.78-31.28 26.21-35.31l.43-.13 14.07-4.6 34.48 41.89Zm263.69 79.68v-48.07a7.5 7.5 0 0 0-15 0v48.07h-181.7v-51.51a7.5 7.5 0 0 0-15 0v51.51h-48.73l3.5-22.6 2.33-15 3.66-23.63a7.28 7.28 0 0 0 .08-1.14v-1.69a54.18 54.18 0 0 1 4-18.8 51.68 51.68 0 0 1 15.78-21.16 48.54 48.54 0 0 1 17.85-8.92c.15 0 .29-.08.44-.12l13-4.24 7.88-2.58 1.72 2.09 9.61 11.67 56.36 68.48 11.65 14.16a2.62 2.62 0 0 0 .22.25c.11.12.22.24.34.35a1.79 1.79 0 0 0 .25.23c.18.16.36.31.55.45l.55.37.08.05.55.29a6 6 0 0 0 .88.35 3.68 3.68 0 0 0 .47.15l.42.09h.23l.54.07h1.34a2.35 2.35 0 0 0 .37-.05l.34-.05.31-.07q.28-.06.57-.15c.19-.06.37-.13.56-.21h.09a2.2 2.2 0 0 0 .31-.15 3.67 3.67 0 0 0 .52-.27 4.66 4.66 0 0 0 .47-.3l.26-.19a1.31 1.31 0 0 0 .24-.17l.25-.22c.18-.17.36-.35.53-.54a.1.1 0 0 0 0-.05l.2-.23 12.58-14.14 30.37-34.15 8.23-9.25 21.3-24 10.09-11.34.44-.5 17.51 6.74.14.05a47.73 47.73 0 0 0 13 4.9 50.53 50.53 0 0 1 21.4 23 55.39 55.39 0 0 1 5.11 23.2 8 8 0 0 0 .1 1.2l3.28 20.13 2.45 15 3.68 22.6Zm101.76-37.6v-33.4a7.5 7.5 0 0 0-15 0v33.4h-29l-3.58-22a70.33 70.33 0 0 0-2.88-19.37L449 307.87l11.6 4.46a8.35 8.35 0 0 0 1 .3c15.85 3.76 26.93 18.35 26.93 35.49a8.08 8.08 0 0 0 .09 1.2l6.56 40.2Z"/></svg>