<svg xmlns="http://www.w3.org/2000/svg" viewBox="0 0 48 48"><path fill="#464646" d="M24 48H2c-1.1 0-2-.9-2-2V9c0-.55.45-1 1-1h40c.55 0 1 .45 1 1v11h-2V10H2v36h22v2z"/><path fill="#464646" d="M41 10H1c-.55 0-1-.45-1-1V4c0-1.1.9-2 2-2h38c1.1 0 2 .9 2 2v5c0 .55-.45 1-1 1zM2 8h38V4H2v4z"/><path fill="#464646" d="M16 0h2v6h-2zM8 0h2v6H8zM32 0h2v6h-2zM24 0h2v6h-2zM20 13h2v2h-2zM5 17h2v2H5zM10 17h2v2h-2zM15 17h2v2h-2zM20 17h2v2h-2zM25 17h2v2h-2zM30 17h2v2h-2zM35 17h2v2h-2zM5 21h2v2H5zM10 21h2v2h-2zM15 21h2v2h-2zM20 21h2v2h-2zM5 25h2v2H5zM10 25h2v2h-2zM15 25h2v2h-2zM5 29h2v2H5zM10 29h2v2h-2zM15 29h2v2h-2zM25 13h2v2h-2zM30 13h2v2h-2zM35 13h2v2h-2zM11 35h7v2h-7zM5 35h3v2H5zM11 40h8v2h-8zM5 40h3v2H5zM37 43h-6c-.55 0-1-.45-1-1v-4h-4c-.55 0-1-.45-1-1v-6c0-.55.45-1 1-1h4v-4c0-.55.45-1 1-1h6c.55 0 1 .45 1 1v4h4c.55 0 1 .45 1 1v6c0 .55-.45 1-1 1h-4v4c0 .55-.45 1-1 1zm-5-2h4v-4c0-.55.45-1 1-1h4v-4h-4c-.55 0-1-.45-1-1v-4h-4v4c0 .55-.45 1-1 1h-4v4h4c.55 0 1 .45 1 1v4z"/><path fill="#464646" d="M34 48c-7.72 0-14-6.28-14-14s6.28-14 14-14 14 6.28 14 14-6.28 14-14 14zm0-26c-6.62 0-12 5.38-12 12s5.38 12 12 12 12-5.38 12-12-5.38-12-12-12z"/></svg>