<svg xmlns="http://www.w3.org/2000/svg" viewBox="0 0 64 64"><path d="M62 20c0-4.411-3.589-8-8-8s-8 3.589-8 8a7.976 7.976 0 0 0 2.726 6h-5.312l-6.707-6.707a.999.999 0 0 0-1.414 0l-4 4a.999.999 0 0 0 0 1.414l9 9A.996.996 0 0 0 41 34h8v7H31.868l4.964-7.445-1.664-1.109L29.465 41H27v-5a1 1 0 0 0-1-1h-8v-4c0-2.108-1.316-3.907-3.166-4.641C16.753 24.897 18 22.594 18 20c0-4.411-3.589-8-8-8s-8 3.589-8 8c0 2.594 1.247 4.897 3.166 6.359C3.316 27.093 2 28.892 2 31v14c0 2.757 2.243 5 5 5v12h2V50h7v11a1 1 0 0 0 1 1h7a1 1 0 0 0 1-1V46a4.973 4.973 0 0 0-1.002-3H31v17h-4v2h10v-2h-4V43h7.026A4.948 4.948 0 0 0 39 46v15a1 1 0 0 0 1 1h7a1 1 0 0 0 1-1V50h7v12h2V50c2.757 0 5-2.243 5-5V31c0-2.108-1.316-3.907-3.166-4.641C60.753 24.897 62 22.594 62 20zm-14 0c0-3.309 2.691-6 6-6s6 2.691 6 6-2.691 6-6 6-6-2.691-6-6zM4 20c0-3.309 2.691-6 6-6s6 2.691 6 6-2.691 6-6 6-6-2.691-6-6zm8 21v-8h-2v9a1 1 0 0 0 1 1h9c1.654 0 3 1.346 3 3v14h-5V49a1 1 0 0 0-1-1H7c-1.654 0-3-1.346-3-3V31c0-1.654 1.346-3 3-3h6c1.654 0 3 1.346 3 3v5a1 1 0 0 0 1 1h8v4H12zm45-13c1.654 0 3 1.346 3 3v14c0 1.654-1.346 3-3 3H47a1 1 0 0 0-1 1v11h-5V46c0-1.654 1.346-3 3-3h6a1 1 0 0 0 1-1v-9a1 1 0 0 0-1-1h-8.586l-8-8L36 21.414l6.293 6.293A.996.996 0 0 0 43 28h14z"/><path d="M23.617 22.924a1 1 0 0 0 1.09-.217L31.414 16H42c1.654 0 3-1.346 3-3V5c0-1.654-1.346-3-3-3H22c-1.654 0-3 1.346-3 3v8c0 1.654 1.346 3 3 3h1v6c0 .404.243.77.617.924zM22 14a1 1 0 0 1-1-1V5a1 1 0 0 1 1-1h20a1 1 0 0 1 1 1v8a1 1 0 0 1-1 1H31a.996.996 0 0 0-.707.293L25 19.586V15a1 1 0 0 0-1-1h-2z"/><path d="M23 6h6v2h-6zM23 10h18v2H23zM31 6h10v2H31z"/></svg>